<svg width="72" height="22" viewBox="0 0 72 22" fill="none" xmlns="http://www.w3.org/2000/svg">
<path d="M7.95355 7.47153C8.91009 7.72761 9.65573 8.18327 10.1943 8.82724C10.7328 9.47497 11.0002 10.3298 11.0002 11.3993C11.0002 12.7174 10.5897 13.7681 9.76494 14.5552C8.94021 15.3422 7.78785 15.7339 6.30033 15.7339H0V0H4.93331C6.47732 0 7.68618 0.384122 8.5561 1.1486C9.42602 1.91307 9.86286 2.94492 9.86286 4.23662C9.86286 4.97097 9.69716 5.61871 9.37329 6.17982C9.0419 6.73717 8.57116 7.16649 7.95355 7.47153ZM4.94084 2.2294H2.54574V6.65432H5.20445C5.88985 6.65432 6.42837 6.43967 6.82002 6.01412C7.21168 5.58858 7.41126 5.05006 7.41126 4.40232C7.41126 3.76212 7.19284 3.23866 6.75977 2.83571C6.32669 2.43276 5.72038 2.2294 4.94084 2.2294ZM5.82206 13.4405C6.66938 13.4405 7.31335 13.2183 7.76526 12.7739C8.2134 12.3295 8.43935 11.7759 8.43935 11.1131C8.43935 10.4202 8.20964 9.85533 7.7502 9.40719C7.29076 8.96282 6.61666 8.74063 5.72415 8.74063H2.54574V13.4405H5.82206Z" fill="black"/>
<path d="M21.2095 4.6358H23.7477V15.7339H21.33L21.2622 14.3443C20.4827 15.41 19.3416 15.9448 17.8428 15.9448C16.5925 15.9448 15.6134 15.6134 14.9092 14.9468C14.2012 14.2802 13.851 13.335 13.851 12.1073V4.63957H16.4118V11.5575C16.4118 12.3446 16.6151 12.9283 17.0256 13.3049C17.4323 13.6852 17.9633 13.8735 18.6073 13.8735C19.3717 13.8735 19.9969 13.64 20.4789 13.1731C20.9609 12.7061 21.2057 11.9868 21.2133 11.0152V4.6358H21.2095Z" fill="black"/>
<path d="M31.2757 15.9448C30.033 15.9448 28.9936 15.6812 28.1651 15.1577C27.3328 14.6305 26.8244 13.8698 26.6437 12.868L28.794 12.2617C28.9409 12.8793 29.2308 13.3463 29.6639 13.6589C30.097 13.9714 30.6355 14.1296 31.2757 14.1296C31.8067 14.1296 32.2549 14.0204 32.6202 13.7982C32.9892 13.576 33.1662 13.222 33.1624 12.7287C33.1624 12.5216 33.1135 12.3408 33.0193 12.1827C32.9252 12.0245 32.8084 11.8927 32.6766 11.7872C32.5448 11.6818 32.3565 11.5763 32.108 11.4747C31.8594 11.373 31.6372 11.2901 31.4339 11.2336C31.2305 11.1734 30.9594 11.0943 30.6129 10.9926C30.2665 10.8909 29.9803 10.8006 29.7505 10.729C29.3325 10.5972 28.9785 10.4616 28.6923 10.3223C28.4061 10.183 28.1161 9.99844 27.8224 9.77248C27.5287 9.54653 27.3065 9.25656 27.1558 8.90633C27.0052 8.5561 26.9299 8.14938 26.9299 7.68618C26.9299 6.9669 27.1182 6.35682 27.491 5.86726C27.8676 5.37392 28.3572 5.01616 28.971 4.79021C29.5811 4.56426 30.2815 4.45505 31.0686 4.45505C32.1795 4.45505 33.1135 4.6923 33.878 5.17057C34.6387 5.64884 35.1132 6.37941 35.2939 7.36608L33.2867 7.84058C33.1474 7.28323 32.88 6.86898 32.4883 6.60537C32.0967 6.34176 31.6259 6.20995 31.0799 6.20995C30.5715 6.20995 30.1422 6.3154 29.7957 6.52252C29.4455 6.73341 29.2723 7.04975 29.2723 7.47529C29.2723 7.59203 29.2836 7.70124 29.3099 7.79916C29.3363 7.89707 29.3852 7.98745 29.4606 8.0703C29.5321 8.15315 29.5999 8.2247 29.6602 8.28495C29.7204 8.34897 29.8146 8.413 29.9464 8.47702C30.0782 8.54104 30.1836 8.59376 30.2665 8.63142C30.3456 8.66907 30.4811 8.71427 30.6619 8.77076C30.8464 8.82725 30.982 8.8649 31.0686 8.89126C31.1552 8.91762 31.3096 8.95905 31.528 9.01177C31.7465 9.06826 31.8971 9.10592 31.9875 9.12852C32.398 9.23773 32.752 9.34317 33.0419 9.43732C33.3319 9.53146 33.652 9.67457 34.0022 9.86286C34.3525 10.0512 34.6349 10.2583 34.8533 10.488C35.0717 10.7177 35.2525 11.0115 35.3994 11.3768C35.5462 11.742 35.6216 12.1488 35.6216 12.5969C35.6216 13.1919 35.5048 13.7116 35.2676 14.1597C35.0303 14.6041 34.7102 14.9543 34.3035 15.2067C33.8968 15.459 33.4373 15.651 32.9365 15.7753C32.4206 15.8807 31.8707 15.9448 31.2757 15.9448Z" fill="black"/>
<path d="M42.3247 15.7339C41.323 15.7339 40.5435 15.4514 39.9861 14.8828C39.4288 14.3179 39.1463 13.5195 39.1463 12.4877V6.61666H36.9282V4.63204H37.6889C38.2915 4.63204 38.7283 4.48893 38.9957 4.20649C39.2631 3.92405 39.3987 3.42696 39.3987 2.72274V1.00172H41.7147V4.63204H44.1324V6.61666H41.7147V12.2203C41.7147 12.7287 41.8427 13.1128 42.095 13.3727C42.3473 13.6325 42.6938 13.7643 43.1269 13.7643H44.1324V15.7263H42.3247V15.7339Z" fill="black"/>
<path d="M51.8073 15.9448C50.0939 15.9448 48.693 15.4251 47.6046 14.3819C46.5163 13.3425 45.9702 11.9379 45.9702 10.1717C45.9702 8.42053 46.5163 7.02715 47.6046 5.984C48.693 4.94461 50.0939 4.42116 51.8073 4.42116C53.5284 4.42116 54.933 4.94085 56.0214 5.97647C57.1097 7.01209 57.6558 8.40923 57.6558 10.1679C57.6558 11.9341 57.1097 13.335 56.0214 14.3782C54.933 15.4213 53.5284 15.9448 51.8073 15.9448ZM51.7847 13.8924C52.7639 13.8924 53.566 13.5497 54.1912 12.868C54.8163 12.1864 55.1289 11.2864 55.1289 10.1754C55.1289 9.0645 54.8163 8.16821 54.1912 7.49035C53.566 6.80873 52.7639 6.4698 51.7847 6.4698C50.8282 6.4698 50.0411 6.80873 49.4235 7.49035C48.8059 8.17198 48.4971 9.06826 48.4971 10.1754C48.4971 11.2864 48.8059 12.1826 49.4198 12.868C50.0336 13.5534 50.8207 13.8924 51.7847 13.8924Z" fill="black"/>
<path d="M66.7504 4.42491C67.7145 4.42491 68.5919 4.65463 69.3828 5.11031C70.1736 5.56598 70.8063 6.2363 71.2846 7.12505C71.7628 8.01004 72.0001 9.03436 72.0001 10.198C72.0001 11.0792 71.8607 11.8889 71.5858 12.6195C71.3109 13.3501 70.9343 13.9601 70.4561 14.4497C69.9778 14.9393 69.4204 15.3159 68.784 15.587C68.1476 15.8581 67.4697 15.99 66.7467 15.99C65.9521 15.99 65.229 15.8167 64.5775 15.4703C63.926 15.1238 63.4327 14.6493 63.0937 14.0468V21.2283H60.5555V4.6358H62.9845L63.0523 6.44343C63.3837 5.81076 63.8771 5.31743 64.5361 4.95967C65.1989 4.60191 65.9332 4.42491 66.7504 4.42491ZM66.2006 13.8359C67.127 13.8359 67.9028 13.5045 68.5279 12.8417C69.1531 12.1789 69.4656 11.2977 69.4656 10.1943C69.4656 9.09085 69.1531 8.2134 68.5279 7.55813C67.9028 6.90287 67.127 6.57524 66.2006 6.57524C65.2667 6.57524 64.4834 6.91416 63.8507 7.59579C63.218 8.27741 62.9017 9.14357 62.9017 10.1943C62.9017 11.2525 63.218 12.1262 63.8507 12.8078C64.4834 13.4932 65.2667 13.8359 66.2006 13.8359Z" fill="black"/>
<rect x="27" y="18" width="9" height="1.5" fill="black"/>
</svg>
